PathFileType	4	(X/Y/Z)	C:/Users/beibeiliu/ov580/test_trc\sequence.13_training_dense_left.trc
DataRate	CameraRate	NumFrames	NumMarkers	Units	OrigDataRate	OrigDataStartFrame	OrigNumFrames
120	120	7	19	mm	120	181	288
Frame#	Time	ThumbCMC			ThumbMCP			ThumbIP			ThumbTip			IndexMCP			IndexPIP			IndexTip			MiddleMCP			MiddlePIP			MiddleTip			RingMCP			RingPIP			RingTip			PinkyMCP			PinkyPIP			PinkyTip			BackHand1			BackHand2			BackHand3	
		X0	Y0	Z0	X1	Y1	Z1	X2	Y2	Z2	X3	Y3	Z3	X4	Y4	Z4	X5	Y5	Z5	X6	Y6	Z6	X7	Y7	Z7	X8	Y8	Z8	X9	Y9	Z9	X10	Y10	Z10	X11	Y11	Z11	X12	Y12	Z12	X13	Y13	Z13	X14	Y14	Z14	X15	Y15	Z15	X16	Y16	Z16	X17	Y17	Z17	X18	Y18	Z18	
180	1.5	-207.805	-7.7808	-28.1746	-221.653	-10.8479	-52.2041	-229.414	-16.9051	-75.6265	-241.295	-14.3133	-93.0777	-206.894	23.5287	-83.8687	-232.806	21.3167	-98.5268	-250.929	4.1972	-76.2302	-206.181	50.0764	-83.3478	-213.152	57.1913	-106.34	-221.271	64.422	-127.463	-214.35	64.0726	-64.3812	-216.863	80.6633	-81.639	-212.767	87.8904	-100.053	-228.439	74.8275	-40.1323	-227.481	84.918	-49.2964	-219.053	102.238	-53.1001	-211.663	51.3351	-24.8549	-205.856	40.1069	-2.69055	-192.722	23.7537	-22.2645	
181	1.50833	-209.615	-6.98117	-25.7667	-219.211	-13.2452	-50.1455	-224.792	-11.0794	-75.6752	-232.875	-8.70067	-92.9118	-203.132	28.1289	-86.2353	-221.941	21.8304	-101.478	-245.512	14.0976	-83.1481	-201.163	51.576	-77.5757	-204.076	60.315	-99.5649	-211.068	70.4745	-122.769	-213.672	69.0747	-59.7931	-209.84	79.3472	-78.0887	-205.649	92.4389	-96.4389	-226.443	77.0097	-39.2622	-222.728	89.8511	-48.1062	-216.611	104.243	-48.7441	-211.725	50.302	-20.9325	-210.458	37.4266	1.13761	-195.889	24.4296	-17.8318	
182	1.51667	-210.282	-3.99878	-26.2729	-216.665	-11.7138	-51.0349	-217.661	-9.82281	-80.2119	-224.892	-2.50331	-99.1914	-197.641	33.3486	-78.3324	-219.258	28.228	-99.0914	-239.201	12.6416	-83.8871	-196.525	55.1939	-77.3604	-196.812	64.8245	-99.926	-200.346	74.4984	-121.745	-208.678	73.4503	-59.9644	-204.065	79.7996	-74.269	-199.383	95.3583	-91.1789	-223.362	76.5688	-40.6429	-221.453	89.6808	-45.2803	-214.96	104.373	-44.8314	-209.344	48.8712	-21.9694	-211.936	42.8153	0.947092	-200.409	26.8422	-16.0413	
183	1.525	-210.896	-0.293597	-25.8539	-211.892	-9.45256	-55.6203	-211.657	-8.50115	-76.4712	-214.921	-1.6353	-99.1646	-191.417	35.3029	-79.7583	-208.731	32.3645	-97.7272	-232.567	14.0074	-82.2247	-193.611	59.7168	-70.0387	-189.465	66.4114	-91.4848	-191.59	80.9667	-117.725	-209.4	73.1252	-53.2278	-199.698	87.2989	-72.453	-194.723	97.3409	-84.3403	-227.942	76.9405	-34.6993	-219.33	93.0159	-44.4587	-214.326	108.788	-40.6314	-211.731	50.7451	-18.7753	-219.424	41.0379	5.25909	-200.056	31.0086	-16.0403	
184	1.53333	-211.583	0.439859	-21.6138	-208.323	-6.09433	-53.0837	-204.929	-4.13776	-77.0356	-206.505	0.055259	-95.9778	-186.345	39.0199	-71.696	-200.723	35.4528	-95.7087	-226.752	18.4977	-83.2472	-189.322	62.611	-65.3455	-184.654	74.8976	-89.8801	-184.387	83.913	-108.131	-203.047	74.7459	-53.9551	-197.391	90.0114	-67.0674	-189.93	106.318	-79.3094	-226.368	80.4178	-34.5919	-225.948	93.9606	-37.1908	-217.859	112.635	-37.6782	-216.833	53.6828	-16.0839	-222.309	40.8206	7.0085	-202.33	30.3915	-10.9214	
185	1.54167	-208.446	4.17477	-20.6173	-203.045	-4.12261	-50.7835	-197.584	-1.17513	-72.896	-199.27	9.49179	-93.0461	-182.603	45.601	-68.3038	-195.587	35.1069	-94.1347	-217.047	19.8824	-85.8763	-189.625	67.3204	-58.3225	-179.947	79.4665	-84.0267	-176.949	89.5154	-105.742	-205.193	77.548	-48.6313	-197.869	95.2452	-61.7112	-188.64	106.222	-72.6851	-229.307	79.5291	-32.7522	-223.852	96.0124	-39.3113	-218.78	109.419	-34.5453	-216.845	51.6014	-13.2589	-226.599	44.6515	8.11303	-204.064	32.2413	-6.30688	
186	1.55	-203.33	5.68278	-20.7101	-198.105	-1.62314	-47.9302	-192.644	3.87971	-69.1877	-190.762	8.46844	-87.763	-178.879	48.0756	-62.0439	-185.681	41.9931	-88.0497	-210.768	26.3024	-86.2745	-186.6	72.5517	-58.552	-175.987	79.3569	-75.4595	-170.588	91.5403	-97.3934	-204.431	82.6925	-46.6215	-195.57	94.6542	-58.134	-186.306	111.643	-68.1606	-228.831	82.0516	-33.5224	-224.324	96.8801	-38.1625	-224.742	112.047	-34.2452	-218.252	55.7693	-12.55	-228.801	41.9165	6.72375	-202.537	35.4033	-5.95592	
